<svg width="27" height="26" viewBox="0 0 27 26" fill="none" xmlns="http://www.w3.org/2000/svg">
<path d="M21.1667 8.60117C21.1667 6.85043 20.3589 5.1714 18.9212 3.93344C17.4834 2.69548 15.5333 2 13.5 2C11.4667 2 9.51663 2.69548 8.07885 3.93344C6.64107 5.1714 5.83333 6.85043 5.83333 8.60117C5.83333 16.3025 2 18.5029 2 18.5029H25C25 18.5029 21.1667 16.3025 21.1667 8.60117Z" stroke="black" stroke-width="3" stroke-linecap="round" stroke-linejoin="round"/>
<path d="M15.7107 22.9037C15.486 23.2371 15.1636 23.5139 14.7756 23.7063C14.3877 23.8987 13.9478 24 13.5001 24C13.0524 24 12.6125 23.8987 12.2246 23.7063C11.8366 23.5139 11.5142 23.2371 11.2896 22.9037" stroke="black" stroke-width="3" stroke-linecap="round" stroke-linejoin="round"/>
</svg>
