<svg width="27" height="26" viewBox="0 0 27 26" fill="none" xmlns="http://www.w3.org/2000/svg">
<path d="M13.5001 16C15.2323 16 16.6365 14.6569 16.6365 13C16.6365 11.3431 15.2323 10 13.5001 10C11.768 10 10.3638 11.3431 10.3638 13C10.3638 14.6569 11.768 16 13.5001 16Z" stroke="black" stroke-width="3" stroke-linecap="round" stroke-linejoin="round"/>
<path d="M21.2364 16C21.0972 16.3016 21.0557 16.6362 21.1172 16.9606C21.1787 17.285 21.3403 17.5843 21.5814 17.82L21.6441 17.88C21.8385 18.0657 21.9927 18.2863 22.0979 18.5291C22.2032 18.7719 22.2573 19.0322 22.2573 19.295C22.2573 19.5578 22.2032 19.8181 22.0979 20.0609C21.9927 20.3037 21.8385 20.5243 21.6441 20.71C21.4499 20.896 21.2193 21.0435 20.9655 21.1441C20.7116 21.2448 20.4395 21.2966 20.1648 21.2966C19.89 21.2966 19.6179 21.2448 19.3641 21.1441C19.1102 21.0435 18.8796 20.896 18.6855 20.71L18.6227 20.65C18.3763 20.4195 18.0634 20.2648 17.7243 20.206C17.3851 20.1472 17.0353 20.1869 16.72 20.32C16.4108 20.4468 16.1471 20.6572 15.9613 20.9255C15.7756 21.1938 15.6759 21.5082 15.6745 21.83V22C15.6745 22.5304 15.4543 23.0391 15.0621 23.4142C14.67 23.7893 14.1382 24 13.5836 24C13.0291 24 12.4973 23.7893 12.1051 23.4142C11.713 23.0391 11.4927 22.5304 11.4927 22V21.91C11.4846 21.579 11.3726 21.258 11.1713 20.9887C10.9699 20.7194 10.6885 20.5143 10.3636 20.4C10.0483 20.2669 9.69852 20.2272 9.35938 20.286C9.02024 20.3448 8.7073 20.4995 8.46091 20.73L8.39818 20.79C8.20399 20.976 7.97339 21.1235 7.71956 21.2241C7.46572 21.3248 7.19364 21.3766 6.91886 21.3766C6.64409 21.3766 6.372 21.3248 6.11817 21.2241C5.86434 21.1235 5.63373 20.976 5.43955 20.79C5.24514 20.6043 5.09092 20.3837 4.98569 20.1409C4.88047 19.8981 4.82631 19.6378 4.82631 19.375C4.82631 19.1122 4.88047 18.8519 4.98569 18.6091C5.09092 18.3663 5.24514 18.1457 5.43955 17.96L5.50227 17.9C5.74329 17.6643 5.90497 17.365 5.96646 17.0406C6.02795 16.7162 5.98644 16.3816 5.84727 16.08C5.71475 15.7842 5.4947 15.532 5.21421 15.3543C4.93373 15.1766 4.60505 15.0813 4.26864 15.08H4.09091C3.53637 15.08 3.00453 14.8693 2.61241 14.4942C2.22029 14.1191 2 13.6104 2 13.08C2 12.5496 2.22029 12.0409 2.61241 11.6658C3.00453 11.2907 3.53637 11.08 4.09091 11.08H4.185C4.53104 11.0723 4.86664 10.9651 5.14818 10.7725C5.42971 10.5799 5.64416 10.3107 5.76364 10C5.9028 9.69838 5.94432 9.36381 5.88282 9.03941C5.82133 8.71502 5.65965 8.41568 5.41864 8.18L5.35591 8.12C5.1615 7.93425 5.00728 7.71368 4.90206 7.47088C4.79683 7.22808 4.74267 6.96783 4.74267 6.705C4.74267 6.44217 4.79683 6.18192 4.90206 5.93912C5.00728 5.69632 5.1615 5.47575 5.35591 5.29C5.5501 5.10405 5.7807 4.95653 6.03453 4.85588C6.28837 4.75523 6.56045 4.70343 6.83523 4.70343C7.11 4.70343 7.38209 4.75523 7.63592 4.85588C7.88975 4.95653 8.12036 5.10405 8.31455 5.29L8.37727 5.35C8.62366 5.58054 8.93661 5.73519 9.27575 5.794C9.61489 5.85282 9.96467 5.81312 10.28 5.68H10.3636C10.6728 5.55324 10.9366 5.34276 11.1223 5.07447C11.3081 4.80618 11.4077 4.49179 11.4091 4.17V4C11.4091 3.46957 11.6294 2.96086 12.0215 2.58579C12.4136 2.21071 12.9455 2 13.5 2C14.0545 2 14.5864 2.21071 14.9785 2.58579C15.3706 2.96086 15.5909 3.46957 15.5909 4V4.09C15.5923 4.41179 15.6919 4.72618 15.8777 4.99447C16.0634 5.26276 16.3271 5.47324 16.6364 5.6C16.9517 5.73312 17.3015 5.77282 17.6406 5.714C17.9798 5.65519 18.2927 5.50054 18.5391 5.27L18.6018 5.21C18.796 5.02405 19.0266 4.87653 19.2804 4.77588C19.5343 4.67523 19.8064 4.62343 20.0811 4.62343C20.3559 4.62343 20.628 4.67523 20.8818 4.77588C21.1357 4.87653 21.3663 5.02405 21.5605 5.21C21.7549 5.39575 21.9091 5.61632 22.0143 5.85912C22.1195 6.10192 22.1737 6.36217 22.1737 6.625C22.1737 6.88783 22.1195 7.14808 22.0143 7.39088C21.9091 7.63368 21.7549 7.85425 21.5605 8.04L21.4977 8.1C21.2567 8.33568 21.095 8.63502 21.0335 8.95941C20.972 9.28381 21.0136 9.61838 21.1527 9.92V10C21.2853 10.2958 21.5053 10.548 21.7858 10.7257C22.0663 10.9034 22.3949 10.9987 22.7314 11H22.9091C23.4636 11 23.9955 11.2107 24.3876 11.5858C24.7797 11.9609 25 12.4696 25 13C25 13.5304 24.7797 14.0391 24.3876 14.4142C23.9955 14.7893 23.4636 15 22.9091 15H22.815C22.4786 15.0013 22.1499 15.0966 21.8694 15.2743C21.5889 15.452 21.3689 15.7042 21.2364 16Z" stroke="black" stroke-width="3" stroke-linecap="round" stroke-linejoin="round"/>
</svg>
